<svg width="223" height="135" viewBox="0 0 223 135" fill="none" xmlns="http://www.w3.org/2000/svg">
<path d="M94.432 2.224C88.384 2.224 58.816 20.944 47.2 38.128C71.872 35.824 96.832 15.76 96.832 5.392C96.832 3.568 95.872 2.224 94.432 2.224ZM71.776 56.176C56.704 75.184 41.728 94.384 18.88 94.384C6.592 94.384 0.256 86.608 0.256 78.256C0.256 70 7.552 60.784 18.784 60.784C26.464 60.784 31.456 65.584 31.456 72.016C31.456 75.28 29.824 78.064 28.192 79.696C26.08 81.808 24.352 82.672 23.296 82.672C22.816 82.672 22.624 82.48 22.624 82.192C22.624 81.712 23.872 81.136 24.736 80.272C26.464 78.544 27.904 75.952 27.904 72.976C27.904 67.12 22.912 63.088 16.576 63.088C9.28 63.088 1.984 70.576 1.984 77.968C1.984 84.784 6.208 91.696 17.536 91.696C37.984 91.696 49.792 76.144 74.56 45.616L74.464 45.232C64.864 55.12 57.568 61.648 50.752 61.648C43.552 61.648 40 56.176 40 48.496C40 45.616 40.672 42.544 41.92 39.568C37.504 39.184 32.32 35.44 32.32 27.76C32.32 13.648 52.672 1.168 68.608 1.168C71.488 1.168 73.696 1.744 75.52 2.704C75.52 2.896 75.136 3.27999 74.752 3.27999C74.08 3.27999 72.352 2.41599 68.608 2.41599C54.592 2.41599 34.432 16.432 34.432 30.064C34.432 33.904 37.984 38.32 42.496 38.32C51.04 19.6 79.744 0.591995 92.992 0.591995C96.352 0.591995 98.272 1.936 98.272 5.392C98.272 16.336 72.256 37.552 46.336 39.472C44.032 43.216 42.592 46.96 42.592 50.32C42.592 57.424 46.432 59.248 50.368 59.248C58.816 59.248 71.296 46.864 75.04 43.12C82.048 36.112 85.216 33.136 91.264 33.136C90.88 33.232 90.112 34 88.864 35.248C86.176 37.936 79.168 46.864 71.776 56.176ZM108.527 20.176C109.679 20.176 110.447 20.944 110.447 22.192C110.447 23.92 108.623 25.936 106.991 25.936C105.839 25.936 105.167 25.168 105.167 23.92C105.167 22.288 106.991 20.176 108.527 20.176ZM89.0388 56.464C93.6468 56.464 103.727 47.056 107.279 42.544C107.471 42.64 107.567 42.832 107.567 43.024C107.567 44.944 94.1268 58 89.2308 58C88.4628 58 87.8867 57.712 87.2148 57.04C86.7348 56.56 85.5828 54.64 85.5828 53.104C85.5828 47.632 91.7268 42.256 98.8307 31.984C101.039 32.848 101.039 34.384 101.039 35.632C101.039 39.28 89.5188 50.608 89.0388 56.464ZM101.811 53.2C101.811 50.032 104.595 45.904 109.875 39.184C124.275 20.848 136.275 4.336 136.275 0.591995C138.291 1.36 139.059 3.088 139.059 4.24C139.059 9.616 127.731 22.768 113.427 42.16C107.379 50.32 105.075 54.736 105.171 56.464C110.259 56.464 120.339 47.056 123.891 42.544C124.083 42.64 124.179 42.832 124.179 43.024C124.179 44.944 110.739 58 105.363 58C104.691 58 103.923 57.712 103.251 57.04C102.195 55.984 101.811 54.64 101.811 53.2ZM137.508 58C136.644 58 135.876 57.712 135.204 57.04C134.34 56.176 133.86 54.928 133.86 53.776C133.86 52.336 134.244 50.896 135.204 49.072L134.82 49.456C130.404 53.872 124.452 58 122.436 58C120.036 58 118.404 55.888 118.404 52.72C118.404 45.328 132.516 31.408 140.388 31.216C143.652 32.464 144.516 33.904 144.516 35.056C144.516 35.344 144.516 35.632 144.42 35.92C152.868 24.88 166.404 7.792 166.404 4.432C168.516 5.2 169.188 6.928 169.188 8.08C169.188 12.4 151.044 34 145.284 42.064C138.564 51.376 136.932 54.16 137.316 56.464C141.924 56.464 152.004 47.056 155.556 42.544C155.748 42.64 155.844 42.832 155.844 43.024C155.844 44.944 142.404 58 137.508 58ZM122.244 56.368C124.068 56.368 129.636 52.624 133.86 48.4C135.876 46.384 137.796 44.56 139.62 42.352L139.812 42.064C140.196 41.584 140.58 41.104 140.964 40.528C142.212 38.8 143.076 36.88 143.076 35.056C143.076 34.288 142.98 34 142.692 33.52C137.892 34.288 121.764 49.168 121.092 55.696C121.284 56.176 121.668 56.368 122.244 56.368ZM160.078 44.368C162.574 44.368 167.278 42.064 169.966 39.376C171.886 37.456 173.134 35.728 173.134 34.768C173.134 33.904 173.038 33.52 172.846 33.328C169.582 33.616 163.726 38.704 159.31 44.368H160.078ZM172.942 48.304C167.566 53.68 159.118 58 155.374 58C152.206 58 150.478 56.56 150.478 52.336C150.478 44.368 162.574 31.216 170.734 31.024C173.422 31.984 174.574 32.752 174.574 34.768C174.574 36.4 172.942 38.32 171.214 40.048C168.142 43.12 163.246 45.52 159.982 45.52C159.31 45.52 158.83 45.52 158.446 45.424C155.662 49.168 153.55 53.008 153.358 55.792C153.55 56.08 154.03 56.368 155.182 56.368C159.502 56.368 167.854 51.952 173.326 46.48C174.862 44.944 176.11 43.6 176.974 42.448C177.166 42.544 177.262 42.736 177.262 42.928C177.262 43.6 175.534 45.712 172.942 48.304ZM190.383 58C189.519 58 188.751 57.712 188.079 57.04C187.215 56.176 186.735 54.928 186.735 53.776C186.735 52.336 187.119 50.896 188.079 49.072L187.695 49.456C183.279 53.872 177.327 58 175.311 58C172.911 58 171.279 55.888 171.279 52.72C171.279 45.328 185.391 31.408 193.263 31.216C196.527 32.464 197.391 33.904 197.391 35.056C197.391 35.344 197.391 35.632 197.295 35.92C205.743 24.88 219.279 7.792 219.279 4.432C221.391 5.2 222.063 6.928 222.063 8.08C222.063 12.4 203.919 34 198.159 42.064C191.439 51.376 189.807 54.16 190.191 56.464C194.799 56.464 204.879 47.056 208.431 42.544C208.623 42.64 208.719 42.832 208.719 43.024C208.719 44.944 195.279 58 190.383 58ZM175.119 56.368C176.943 56.368 182.511 52.624 186.735 48.4C188.751 46.384 190.671 44.56 192.495 42.352L192.687 42.064C193.071 41.584 193.455 41.104 193.839 40.528C195.087 38.8 195.951 36.88 195.951 35.056C195.951 34.288 195.855 34 195.567 33.52C190.767 34.288 174.639 49.168 173.967 55.696C174.159 56.176 174.543 56.368 175.119 56.368ZM79.744 134.552C74.752 134.552 70.912 130.52 70.912 123.416C70.912 113.144 81.856 100.76 81.856 97.208C81.856 96.632 81.76 96.056 81.664 95.672C78.592 95.576 76.768 95.096 75.232 94.04C75.52 93.08 76.288 91.928 77.056 91.544C78.688 91.448 80.512 91.928 81.568 92.984C86.368 92.12 98.08 83.576 98.08 71.768C98.08 69.368 97.312 67.256 95.872 65.624C94.528 66.584 93.088 67.832 91.552 69.368C83.584 77.144 69.568 98.744 58.816 109.4C50.848 117.368 42.784 122.648 33.76 122.648C26.464 122.648 19.456 119 19.456 108.824C19.456 91.448 52.096 60.632 85.12 60.632C89.152 60.632 92.608 61.4 95.296 63.128C97.504 62.072 99.424 61.592 100.96 61.592C102.496 61.592 102.784 62.168 102.496 62.744C101.152 62.744 99.424 63.224 97.216 64.664C99.712 67.064 101.056 70.616 101.056 75.32C101.056 86.264 90.496 95.672 83.296 95.672C83.488 96.248 83.584 97.016 83.584 97.976C83.584 102.968 76.864 113.528 76.864 124.952C76.864 128.216 77.824 130.904 79.072 132.152C79.936 133.016 80.416 133.208 81.472 133.208C81.952 133.208 82.72 133.112 83.2 132.92C83.296 133.112 83.296 133.4 83.008 133.688C82.528 134.168 81.28 134.552 79.744 134.552ZM31.84 119.768C38.08 119.768 44.608 115.736 54.4 105.848C62.368 97.784 73.792 81.272 82.624 72.632C86.752 68.504 90.496 65.72 93.76 63.896C91.552 62.552 88.576 61.784 84.928 61.784C52.48 61.784 21.088 93.176 21.088 108.824C21.088 116.984 26.368 119.768 31.84 119.768ZM108.082 92.024C111.538 93.368 112.402 94.712 112.402 96.056C112.402 100.28 108.274 107 103.474 111.8C99.346 115.928 95.026 119 92.53 119C90.514 119 88.786 116.792 88.786 113.432C88.786 105.848 99.922 92.216 108.082 92.024ZM102.418 110.744C106.834 106.328 110.962 99.704 110.962 96.056C110.962 95.192 110.77 94.712 110.386 94.328C104.914 95 92.146 110.36 91.666 116.696C91.858 117.08 92.146 117.272 92.626 117.272C95.026 117.272 98.674 114.488 102.418 110.744ZM114.968 119C111.992 119 108.344 116.312 108.344 112.184C108.344 109.4 109.304 107.672 111.512 105.464C112.472 104.504 114.392 103.448 115.352 103.448C116.312 103.448 116.984 103.736 116.984 104.216C116.984 104.792 116.408 105.368 116.12 105.656C114.584 107.192 111.608 111.992 111.608 113.912C111.608 116.312 113.336 117.848 115.736 117.944C119.096 116.792 122.552 112.76 122.552 106.328C122.552 98.84 123.416 97.304 126.104 94.616C127.736 92.984 130.328 91.832 132.344 91.832C134.648 91.832 135.704 93.656 135.704 94.808C135.704 96.248 134.648 98.36 132.344 99.608C131.576 99.032 131.096 98.168 131.096 97.4C131.48 95.672 133.208 94.232 134.072 93.848C133.88 93.176 133.4 92.984 132.344 92.984C128.984 92.984 126.68 97.016 126.68 99.896C126.68 103.448 127.64 106.136 127.64 108.92C127.64 113.816 121.496 119 114.968 119ZM141.984 105.368C144.48 105.368 149.184 103.064 151.872 100.376C153.792 98.456 155.04 96.728 155.04 95.768C155.04 94.904 154.944 94.52 154.752 94.328C151.488 94.616 145.632 99.704 141.216 105.368H141.984ZM154.848 109.304C149.472 114.68 141.024 119 137.28 119C134.112 119 132.384 117.56 132.384 113.336C132.384 105.368 144.48 92.216 152.64 92.024C155.328 92.984 156.48 93.752 156.48 95.768C156.48 97.4 154.848 99.32 153.12 101.048C150.048 104.12 145.152 106.52 141.888 106.52C141.216 106.52 140.736 106.52 140.352 106.424C137.568 110.168 135.456 114.008 135.264 116.792C135.456 117.08 135.936 117.368 137.088 117.368C141.408 117.368 149.76 112.952 155.232 107.48C156.768 105.944 158.016 104.6 158.88 103.448C159.072 103.544 159.168 103.736 159.168 103.928C159.168 104.6 157.44 106.712 154.848 109.304Z" fill="currentColor"/>
</svg>
